<?xml version="1.0" standalone="no"?>
<!DOCTYPE svg PUBLIC "-//W3C//DTD SVG 20010904//EN"
 "http://www.w3.org/TR/2001/REC-SVG-20010904/DTD/svg10.dtd">
<svg version="1.0" xmlns="http://www.w3.org/2000/svg"
 width="5358.000000pt" height="3025.000000pt" viewBox="0 0 5358.000000 3025.000000"
 preserveAspectRatio="xMidYMid meet">

<g transform="translate(0.000000,3025.000000) scale(0.100000,-0.100000)"
fill="#000000" stroke="none">
<path d="M9930 19235 l0 -665 715 0 715 0 0 665 0 665 -715 0 -715 0 0 -665z"/>
<path d="M37743 18950 c-134 -20 -267 -76 -419 -179 -265 -179 -427 -381 -489
-612 -64 -239 -80 -344 -79 -524 0 -152 3 -181 27 -268 29 -108 95 -255 154
-344 88 -134 264 -288 421 -369 4 -2 -148 -279 -235 -427 -348 -597 -786
-1215 -1217 -1717 -117 -136 -486 -505 -601 -601 -462 -385 -889 -584 -1297
-606 -184 -10 -286 23 -388 126 -141 141 -235 422 -260 781 -26 360 30 868
206 1869 198 1127 214 1463 82 1648 -58 81 -127 114 -274 134 -156 20 -286 -5
-392 -78 -63 -43 -170 -168 -266 -310 -38 -57 -73 -103 -76 -103 -4 0 -21 17
-38 39 -17 21 -59 60 -94 86 -498 374 -1634 253 -2720 -291 -384 -192 -719
-428 -1037 -729 -161 -152 -439 -480 -585 -689 -70 -100 -80 -111 -130 -131
-73 -30 -90 -45 -185 -162 -401 -499 -848 -891 -1561 -1368 -814 -545 -1428
-871 -1975 -1048 -346 -112 -582 -158 -910 -177 -265 -16 -430 8 -595 87 -290
138 -485 620 -467 1158 10 293 79 560 261 1010 258 636 538 1072 1004 1564
161 170 352 347 512 476 117 94 340 251 340 240 0 -3 -20 -41 -45 -84 -56 -99
-110 -231 -130 -313 -30 -129 -11 -307 49 -441 103 -233 356 -397 616 -399
236 -2 359 83 487 337 169 337 280 679 338 1051 54 347 21 565 -112 739 -91
118 -305 236 -501 277 -81 17 -120 19 -242 15 -274 -11 -526 -93 -845 -276
-368 -212 -692 -467 -1060 -835 -480 -481 -796 -905 -1134 -1524 -294 -538
-476 -1087 -522 -1576 -15 -162 -6 -522 16 -666 72 -462 207 -800 429 -1077
217 -270 535 -461 841 -505 141 -20 705 -17 870 5 724 97 1378 340 2185 812
701 410 1335 858 1869 1321 62 55 126 109 142 122 l28 22 6 -57 c55 -470 321
-846 750 -1060 535 -268 1175 -219 1773 135 289 172 470 325 862 727 408 419
719 790 1023 1220 264 374 330 465 334 461 2 -2 -12 -107 -31 -232 -56 -360
-76 -567 -87 -884 -23 -658 31 -1021 206 -1380 118 -240 264 -432 410 -535
123 -88 311 -168 476 -204 364 -78 833 11 1334 254 618 301 1255 866 1872
1662 394 507 852 1215 1167 1803 43 80 81 148 85 152 7 8 182 -18 433 -66 103
-20 324 -58 490 -85 463 -77 606 -118 653 -190 32 -47 41 -98 60 -321 139
-1628 287 -2556 489 -3073 130 -334 290 -560 447 -635 72 -34 262 -84 389
-103 232 -34 507 28 814 182 293 147 525 304 870 587 557 458 976 867 1368
1336 56 66 104 122 107 124 3 1 2 -78 -2 -175 -29 -620 47 -1038 264 -1464 93
-182 169 -292 278 -399 240 -236 540 -378 898 -425 496 -65 1234 96 1833 401
448 227 1276 815 1965 1394 216 182 1542 1390 1573 1433 64 91 87 154 87 242
0 68 -5 88 -28 132 -64 123 -145 176 -267 177 -91 1 -148 -23 -207 -87 -67
-73 -144 -149 -276 -269 -303 -279 -1191 -1044 -1475 -1272 -854 -683 -1576
-1125 -2152 -1317 -185 -61 -308 -87 -490 -100 -434 -33 -661 29 -828 225 -71
84 -146 305 -189 557 -24 142 -23 764 2 999 28 269 71 540 121 765 30 132 94
367 103 378 4 4 70 0 147 -9 117 -15 159 -15 269 -6 315 27 538 106 805 284
435 289 636 570 731 1018 30 139 33 373 6 468 -59 216 -187 426 -330 543 -77
62 -232 140 -352 176 -77 23 -107 26 -210 26 -251 -2 -488 -78 -720 -230 -543
-358 -949 -954 -1246 -1832 -33 -96 -76 -234 -96 -306 l-36 -130 -117 -150
c-64 -82 -197 -258 -295 -390 -506 -681 -861 -1066 -1378 -1495 -334 -276
-493 -388 -692 -486 -197 -96 -338 -128 -470 -105 -181 32 -287 153 -368 421
-174 573 -300 1302 -362 2085 -38 482 -47 578 -66 705 -60 395 -142 586 -326
760 -207 197 -461 276 -993 310 -389 24 -535 49 -641 107 -82 44 -92 63 -86
158 3 63 17 115 59 240 67 195 94 307 107 446 16 164 -7 327 -64 456 -60 134
-178 270 -297 341 -136 81 -322 116 -485 92z m8749 -1927 c29 -26 41 -112 28
-200 -25 -167 -104 -307 -257 -459 -154 -154 -325 -254 -493 -289 -76 -16
-280 -21 -280 -6 0 14 120 209 195 316 148 213 380 475 495 561 120 89 259
123 312 77z m-14964 -95 c60 -15 123 -77 182 -178 55 -95 148 -188 224 -225
44 -22 77 -30 137 -33 44 -3 79 -7 79 -10 0 -18 -245 -411 -378 -607 -552
-810 -1200 -1460 -1788 -1794 -285 -162 -629 -232 -818 -165 -68 24 -164 116
-210 203 -48 92 -66 173 -66 307 0 448 258 911 788 1412 624 591 1144 933
1632 1073 106 31 150 34 218 17z"/>
<path d="M5775 17940 c-640 -47 -1101 -209 -1418 -498 -220 -201 -362 -414
-447 -671 -56 -169 -73 -284 -73 -486 0 -258 38 -444 132 -641 137 -287 378
-528 676 -676 337 -168 1047 -382 1900 -573 339 -76 524 -144 601 -222 70 -70
110 -200 98 -318 -16 -140 -77 -247 -188 -330 -193 -143 -517 -216 -901 -202
-295 11 -493 65 -671 183 -182 120 -315 311 -389 557 -28 94 -31 97 -55 93
-14 -3 -322 -51 -685 -106 -363 -55 -672 -103 -687 -106 -16 -3 -28 -12 -28
-21 0 -39 89 -276 150 -401 113 -230 230 -391 411 -568 384 -372 865 -575
1541 -651 190 -21 743 -24 918 -5 747 82 1222 293 1592 707 303 339 442 717
425 1164 -12 323 -97 587 -258 801 -268 355 -802 606 -1774 835 -922 216
-1269 328 -1387 446 -70 70 -93 125 -93 224 0 99 22 152 95 229 123 130 372
200 760 213 477 16 769 -79 962 -313 53 -64 125 -198 153 -282 15 -46 20 -53
39 -48 11 3 291 55 621 116 330 61 623 115 651 121 l52 10 -18 57 c-162 528
-515 945 -965 1140 -245 106 -548 177 -915 212 -145 14 -680 20 -825 10z"/>
<path d="M15501 17939 c-365 -41 -700 -175 -1006 -401 -68 -50 -177 -148 -282
-254 l-173 -173 0 364 0 365 -660 0 -660 0 0 -2720 0 -2720 715 0 715 0 0
1433 c0 1645 6 1833 70 2148 91 447 357 739 767 841 73 18 117 22 253 22 179
0 264 -15 369 -68 173 -88 289 -269 332 -516 40 -236 42 -325 46 -2122 l4
-1738 715 0 714 0 0 1459 c0 1452 3 1628 36 1886 67 537 255 841 628 1016 326
153 717 104 924 -115 123 -130 168 -259 208 -596 16 -131 18 -310 21 -1897 l4
-1753 715 0 715 0 -4 1928 c-4 2054 -3 2036 -52 2317 -61 349 -188 599 -424
836 -223 222 -479 355 -821 423 -644 129 -1217 -9 -1715 -411 -94 -77 -285
-264 -369 -363 -21 -25 -40 -40 -42 -34 -3 5 -31 50 -62 100 -268 412 -641
653 -1127 729 -121 19 -438 27 -554 14z"/>
<path d="M9930 15120 l0 -2720 715 0 715 0 0 2720 0 2720 -715 0 -715 0 0
-2720z"/>
</g>
</svg>
